<svg width="13" height="12" xmlns="http://www.w3.org/2000/svg"><path d="M12.8449 5.8548a.591.591 0 0 0-.0485-.8457L7.2569.1619c-.2515-.2198-.6546-.2152-.9007.0104L.7978 5.2675a.5876.5876 0 0 0-.0268.8446l.1394.145c.2312.2407.6049.2694.8341.064l.4154-.372v5.4462c0 .3342.2708.6047.6047.6047h2.1667a.6046.6046 0 0 0 .6046-.6047V7.5851h2.7637v3.8102c-.0048.3339.234.6045.568.6045h2.2961a.6047.6047 0 0 0 .6047-.6047V6.0258s.1147.1005.2563.2249c.1413.1242.438.0246.6627-.2228l.1575-.173Z" fill="#D31342"/></svg>