<svg width="54" height="40" fill="none" xmlns="http://www.w3.org/2000/svg"><path d="M40.0179 0c2.4107 0 4.6875.6504 6.8303 1.9512 2.1429 1.3008 3.8839 3.1708 5.2232 5.6098C53.3571 10 54 12.8726 54 16.1789c0 3.3062-.8036 6.5311-2.4107 9.6748-.5357 1.1382-1.5 2.6016-2.8929 4.3902-1.4464 1.7886-2.7857 3.3333-4.0178 4.6341L39.6161 40 36 33.9837c2.5179-1.5718 4.7411-3.523 6.6696-5.8536 1.9286-2.2764 2.8929-4.3632 2.8929-6.2602 0-.9756-.2143-1.7615-.6429-2.3577-1.875 1.355-3.9642 2.0325-6.2678 2.0325-1.6607 0-3.2411-.5149-4.7411-1.5447-1.5536-.9756-2.7857-2.2764-3.6964-3.9024-.9643-1.5719-1.4464-3.1979-1.4464-4.8781 0-1.897.5625-3.7127 1.6875-5.4471 1.0714-1.7345 2.491-3.1437 4.2589-4.2277C36.4286.515 38.1964 0 40.0179 0ZM11.1696 0C13.5804 0 15.8571.6504 18 1.9512c2.1429 1.3008 3.8839 3.1707 5.2232 5.6098 1.2857 2.439 1.9286 5.3116 1.9286 8.6179 0 2.3306-.2947 4.4173-.8839 6.2601-.5893 1.897-1.6072 3.8754-3.0536 5.935-1.3929 1.9512-2.7054 3.5772-3.9375 4.878-1.2322 1.355-3.375 3.6044-6.4286 6.748l-3.616-6.0163c2.5178-1.5718 4.741-3.523 6.6696-5.8536 1.9286-2.2764 2.8928-4.3632 2.8928-6.2602 0-.9756-.2142-1.7615-.6428-2.3577-1.875 1.355-3.9643 2.0325-6.2679 2.0325-1.6607 0-3.241-.5149-4.741-1.5447-1.5536-.9756-2.7858-2.2764-3.6965-3.9024C.4821 14.5257 0 12.8997 0 11.2195c0-1.897.5357-3.7127 1.6071-5.4471 1.0715-1.7345 2.4911-3.1437 4.259-4.2277C7.5804.515 9.3482 0 11.1696 0Z" fill="#E1E1E1"/></svg>